<mxfile host="app.diagrams.net" modified="2022-11-20T05:30:47.114Z" agent="5.0 (Macintosh; Intel Mac OS X 10_15_7) AppleWebKit/537.36 (KHTML, like Gecko) Chrome/107.0.0.0 Safari/537.36" etag="7f0uE_6vG_Us53d_L9Kc" version="20.5.3" type="github">
  <diagram id="C5RBs43oDa-KdzZeNtuy" name="Page-1">
    <mxGraphModel dx="946" dy="646" grid="1" gridSize="10" guides="1" tooltips="1" connect="1" arrows="1" fold="1" page="1" pageScale="1" pageWidth="827" pageHeight="1169" math="0" shadow="0">
      <root>
        <mxCell id="WIyWlLk6GJQsqaUBKTNV-0" />
        <mxCell id="WIyWlLk6GJQsqaUBKTNV-1" parent="WIyWlLk6GJQsqaUBKTNV-0" />
        <mxCell id="yVuTFfDJjKvZzRk5ojyY-18" value="" style="group" vertex="1" connectable="0" parent="WIyWlLk6GJQsqaUBKTNV-1">
          <mxGeometry x="70" y="175" width="160" height="230" as="geometry" />
        </mxCell>
        <mxCell id="yVuTFfDJjKvZzRk5ojyY-12" value="" style="rounded=1;whiteSpace=wrap;html=1;fontSize=12;glass=0;strokeWidth=1;shadow=0;" vertex="1" parent="yVuTFfDJjKvZzRk5ojyY-18">
          <mxGeometry width="160" height="230" as="geometry" />
        </mxCell>
        <mxCell id="yVuTFfDJjKvZzRk5ojyY-17" value="&amp;lt;&amp;lt;Manual Dialog&amp;gt;&amp;gt;" style="text;html=1;align=center;verticalAlign=middle;resizable=1;points=[];autosize=1;strokeColor=none;fillColor=none;movable=1;rotatable=1;deletable=1;editable=1;connectable=1;" vertex="1" parent="yVuTFfDJjKvZzRk5ojyY-18">
          <mxGeometry x="15" y="5" width="130" height="30" as="geometry" />
        </mxCell>
        <mxCell id="yVuTFfDJjKvZzRk5ojyY-15" value="&amp;lt;&amp;lt;toggle switch&amp;gt;&amp;gt;&lt;br&gt;pump switch" style="rounded=1;whiteSpace=wrap;html=1;fontSize=12;glass=0;strokeWidth=1;shadow=0;" vertex="1" parent="yVuTFfDJjKvZzRk5ojyY-18">
          <mxGeometry x="20" y="105" width="120" height="40" as="geometry" />
        </mxCell>
        <mxCell id="yVuTFfDJjKvZzRk5ojyY-13" value="&amp;lt;&amp;lt;toggle switch&amp;gt;&amp;gt;&lt;br&gt;led switch" style="rounded=1;whiteSpace=wrap;html=1;fontSize=12;glass=0;strokeWidth=1;shadow=0;" vertex="1" parent="yVuTFfDJjKvZzRk5ojyY-18">
          <mxGeometry x="20" y="55" width="120" height="40" as="geometry" />
        </mxCell>
        <mxCell id="yVuTFfDJjKvZzRk5ojyY-3" style="edgeStyle=orthogonalEdgeStyle;rounded=0;orthogonalLoop=1;jettySize=auto;html=1;entryX=0.5;entryY=0;entryDx=0;entryDy=0;" edge="1" parent="WIyWlLk6GJQsqaUBKTNV-1" source="WIyWlLk6GJQsqaUBKTNV-3" target="yVuTFfDJjKvZzRk5ojyY-5">
          <mxGeometry relative="1" as="geometry">
            <mxPoint x="410" y="92.5" as="targetPoint" />
          </mxGeometry>
        </mxCell>
        <mxCell id="yVuTFfDJjKvZzRk5ojyY-7" style="edgeStyle=orthogonalEdgeStyle;rounded=0;orthogonalLoop=1;jettySize=auto;html=1;entryX=0.5;entryY=0;entryDx=0;entryDy=0;" edge="1" parent="WIyWlLk6GJQsqaUBKTNV-1" source="WIyWlLk6GJQsqaUBKTNV-3" target="yVuTFfDJjKvZzRk5ojyY-4">
          <mxGeometry relative="1" as="geometry" />
        </mxCell>
        <mxCell id="yVuTFfDJjKvZzRk5ojyY-8" style="edgeStyle=orthogonalEdgeStyle;rounded=0;orthogonalLoop=1;jettySize=auto;html=1;" edge="1" parent="WIyWlLk6GJQsqaUBKTNV-1" source="WIyWlLk6GJQsqaUBKTNV-3" target="yVuTFfDJjKvZzRk5ojyY-6">
          <mxGeometry relative="1" as="geometry" />
        </mxCell>
        <mxCell id="WIyWlLk6GJQsqaUBKTNV-3" value="&amp;lt;&amp;lt;Application&amp;gt;&amp;gt;&lt;br&gt;Main Home" style="rounded=1;whiteSpace=wrap;html=1;fontSize=12;glass=0;strokeWidth=1;shadow=0;" parent="WIyWlLk6GJQsqaUBKTNV-1" vertex="1">
          <mxGeometry x="350" width="120" height="40" as="geometry" />
        </mxCell>
        <mxCell id="yVuTFfDJjKvZzRk5ojyY-14" style="edgeStyle=orthogonalEdgeStyle;rounded=0;orthogonalLoop=1;jettySize=auto;html=1;" edge="1" parent="WIyWlLk6GJQsqaUBKTNV-1" source="yVuTFfDJjKvZzRk5ojyY-4" target="yVuTFfDJjKvZzRk5ojyY-12">
          <mxGeometry relative="1" as="geometry" />
        </mxCell>
        <mxCell id="yVuTFfDJjKvZzRk5ojyY-4" value="&amp;lt;&amp;lt;button&amp;gt;&amp;gt;&lt;br&gt;manual control interface" style="rounded=1;whiteSpace=wrap;html=1;fontSize=12;glass=0;strokeWidth=1;shadow=0;" vertex="1" parent="WIyWlLk6GJQsqaUBKTNV-1">
          <mxGeometry x="90" y="90" width="120" height="50" as="geometry" />
        </mxCell>
        <mxCell id="yVuTFfDJjKvZzRk5ojyY-5" value="&amp;lt;&amp;lt;button&amp;gt;&amp;gt;&lt;br&gt;auto control interface" style="rounded=1;whiteSpace=wrap;html=1;fontSize=12;glass=0;strokeWidth=1;shadow=0;" vertex="1" parent="WIyWlLk6GJQsqaUBKTNV-1">
          <mxGeometry x="350" y="90" width="120" height="50" as="geometry" />
        </mxCell>
        <mxCell id="yVuTFfDJjKvZzRk5ojyY-6" value="&amp;lt;&amp;lt;button&amp;gt;&amp;gt;&lt;br&gt;diary interface" style="rounded=1;whiteSpace=wrap;html=1;fontSize=12;glass=0;strokeWidth=1;shadow=0;" vertex="1" parent="WIyWlLk6GJQsqaUBKTNV-1">
          <mxGeometry x="620" y="90" width="120" height="50" as="geometry" />
        </mxCell>
        <mxCell id="yVuTFfDJjKvZzRk5ojyY-9" value="manual control&lt;br&gt;&amp;nbsp;button click" style="text;html=1;align=center;verticalAlign=middle;resizable=0;points=[];autosize=1;strokeColor=none;fillColor=none;" vertex="1" parent="WIyWlLk6GJQsqaUBKTNV-1">
          <mxGeometry x="150" y="40" width="100" height="40" as="geometry" />
        </mxCell>
        <mxCell id="yVuTFfDJjKvZzRk5ojyY-10" value="auto control &lt;br&gt;button click" style="text;html=1;align=center;verticalAlign=middle;resizable=0;points=[];autosize=1;strokeColor=none;fillColor=none;" vertex="1" parent="WIyWlLk6GJQsqaUBKTNV-1">
          <mxGeometry x="415" y="40" width="90" height="40" as="geometry" />
        </mxCell>
        <mxCell id="yVuTFfDJjKvZzRk5ojyY-11" value="diary &lt;br&gt;button click" style="text;html=1;align=center;verticalAlign=middle;resizable=0;points=[];autosize=1;strokeColor=none;fillColor=none;" vertex="1" parent="WIyWlLk6GJQsqaUBKTNV-1">
          <mxGeometry x="680" y="40" width="80" height="40" as="geometry" />
        </mxCell>
        <mxCell id="yVuTFfDJjKvZzRk5ojyY-16" value="&amp;lt;&amp;lt;toggle switch&amp;gt;&amp;gt;&lt;br&gt;fan switch" style="rounded=1;whiteSpace=wrap;html=1;fontSize=12;glass=0;strokeWidth=1;shadow=0;" vertex="1" parent="WIyWlLk6GJQsqaUBKTNV-1">
          <mxGeometry x="90" y="330" width="120" height="40" as="geometry" />
        </mxCell>
        <mxCell id="yVuTFfDJjKvZzRk5ojyY-19" value="&amp;lt;&amp;lt;button&amp;gt;&amp;gt;&lt;br&gt;auto control interface" style="rounded=1;whiteSpace=wrap;html=1;fontSize=12;glass=0;strokeWidth=1;shadow=0;" vertex="1" parent="WIyWlLk6GJQsqaUBKTNV-1">
          <mxGeometry x="350" y="170" width="120" height="50" as="geometry" />
        </mxCell>
      </root>
    </mxGraphModel>
  </diagram>
</mxfile>
